<svg id="Layer_1" data-name="Layer 1" xmlns="http://www.w3.org/2000/svg" viewBox="0 0 335.42 316.29"><defs><style>.cls-1{fill:#6f98d0;}.cls-2{fill:#436bb4;}.cls-3{fill:#21418d;}.cls-4{fill:#010101;}</style></defs><path class="cls-1" d="M704.15,129.87c4.48-2.33,8.52-5.38,13.16-7.43a63.76,63.76,0,0,0-.81,12.73c.3,54.48-.25,109,.27,163.46-5.71,3.66-11.63,7-17.54,10.37l-.41,2.2c-.24-.39-.73-1.17-1-1.57-6.74,4.15-13.44,8.49-20.67,11.81-.35-58.45,0-116.9-.2-175.35C685.68,140.13,695.15,135.36,704.15,129.87Z" transform="translate(-631.37 -122.44)"/><path class="cls-1" d="M791,192.27c.47,1.17.95,2.34,1.46,3.51a8.3,8.3,0,0,0-.81,4.82,8.82,8.82,0,0,0,2.56,1.85,28.87,28.87,0,0,0-1.47-6c10.65,21,20.66,42.26,31.15,63.32l.83,1.08c8.59.52,17.25-.51,25.83.37-9.49-.06-19,.51-28.49-.48a39.53,39.53,0,0,0-3.51-8.91c-4.6-8.11-8.4-16.61-12.44-25A189.24,189.24,0,0,1,795,203.57l-3.58-.39c.53,15.37-.21,30.74.32,46.09-.09,3.58.64,7.45-1.38,10.67-1.33-12.58.24-25.25-.15-37.88C790.76,212.13,788.54,202.07,791,192.27Z" transform="translate(-631.37 -122.44)"/><path class="cls-2" d="M717.31,122.44c57.07.28,114.13,0,171.2.16,7.35-.57,14.71,5.31,14.59,12.61q0,13.5,0,27,0,61.53,0,123c0,4.17.41,8.37-.26,12.52a6.26,6.26,0,0,1-4,1.56c-53.78-.08-107.54,0-161.31,0-7,0-13.91.37-20.81-.64-.52-54.48,0-109-.27-163.46A63.76,63.76,0,0,1,717.31,122.44ZM769,162.1c0,32.59-.1,65.16.05,97.74,7.09.14,14.17,0,21.26.1,2-3.22,1.29-7.09,1.38-10.67-.53-15.35.21-30.72-.32-46.09l3.58.39a189.24,189.24,0,0,0,11.08,23.23c4,8.37,7.84,16.87,12.44,25a39.53,39.53,0,0,1,3.51,8.91c9.45,1,19,.42,28.49.48-8.58-.88-17.24.15-25.83-.37l-.83-1.08c8.95.27,17.9.15,26.85.1,0-32.56.06-65.11,0-97.67-7.17-.21-14.33-.12-21.49,0-.23,20.07.33,40.15-.31,60.2-9.28-19.22-19.17-38.18-28.69-57.3-.7-1.39-1.5-3.55-3.6-3C787.39,162,778.21,162,769,162.1Z" transform="translate(-631.37 -122.44)"/><path class="cls-3" d="M903.13,285.23q0-61.5,0-123c6,0,11.91,0,17.87.09q.09,87.89,0,175.78c-69.67.18-139.35,0-209,.07a13.35,13.35,0,0,1-13.06-9.57,111.79,111.79,0,0,1-.1-17.36l.41-2.2c5.91-3.38,11.83-6.71,17.54-10.37,6.9,1,13.86.62,20.81.64,53.77,0,107.53,0,161.31,0a6.26,6.26,0,0,0,4-1.56C903.54,293.6,903.1,289.4,903.13,285.23Z" transform="translate(-631.37 -122.44)"/><path class="cls-4" d="M748.19,388.63c1.66-.82,3.43,0,5,.55,1.91,2.22,2.29,5.57,0,7.7l-1.67.92c-1.85.16-4.15.28-5.28-1.52C744.1,394,745.05,389.53,748.19,388.63Z" transform="translate(-631.37 -122.44)"/><path class="cls-4" d="M906.24,389.86c2.69-.06,5.38-.05,8.08-.06,0,9,0,18,0,27.05,3.74-4.66,7.87-9,11.8-13.51,3,0,6-.06,9,.06-4.33,4.49-8.42,9.22-12.45,14,4.8,6.82,9.74,13.55,14.38,20.48-3,0-5.9,0-8.85,0-3.65-5.09-7.13-10.3-10.76-15.41-1.55.35-2.51,2.23-3.13,3.61-.07,3.93.09,7.85,0,11.78l-8.1,0C906.3,421.86,906.25,405.86,906.24,389.86Z" transform="translate(-631.37 -122.44)"/><path class="cls-4" d="M631.37,392.4c3.3,0,6.61.06,9.9,0,5.58,11.4,11.84,22.47,17.15,34,.6-11.33-.12-22.7.41-34,2.39.05,4.79.05,7.18,0,0,15.12-.09,30.25,0,45.37-3.18.17-6.37,0-9.55.11-5.83-11.74-11.85-23.39-17.83-35.05-.1,11.69.09,23.37-.11,35.05-2.39-.05-4.78,0-7.17-.05Q631.51,415.12,631.37,392.4Z" transform="translate(-631.37 -122.44)"/><path class="cls-4" d="M675.08,405.84c6.33-3.35,14.13-4.77,20.9-1.92.19-.14.58-.42.78-.55.06.36.18,1.08.23,1.44,3.42,1.71,4.7,5.86,4.69,9.44q0,11.81,0,23.6c-2,0-4.07.08-6.1-.05a11.73,11.73,0,0,1-.89-3.27c-4.79,5.09-13.69,5.69-18.93,1-5-5-3.59-15.45,3.71-17.58,4.51-1.77,9.46-1.33,14.2-1.36.11-2.57.2-5.67-2.23-7.3-4.65-2-9.76,0-14.19,1.65C676.55,409.22,675.77,407.55,675.08,405.84Zm6.74,18c-1.37,2.59-1.62,7.23,1.71,8.45a10.26,10.26,0,0,0,9.9-2.51c.53-2.64.1-5.41.27-8.1C689.76,422,684.89,420.66,681.82,423.86Z" transform="translate(-631.37 -122.44)"/><path class="cls-4" d="M761.77,408.64c1.58-3.47,5.35-5.25,8.92-5.94,5.77-.81,12.19.26,16.69,4.18A24.6,24.6,0,0,0,784,411c-4.49-2-10.18-4.38-14.59-.87,0,1.2-.08,2.41-.06,3.61,4.61,4.06,11.61,3.72,16.08,8,2.26,2.18,2.48,5.56,2.1,8.5-.46,3.62-3.56,6.35-6.91,7.38a24.29,24.29,0,0,1-21.24-3.46c1.26-1.64,2.56-3.23,4-4.74,4.41,3.23,10.61,4.54,15.62,1.9.93-2,1.13-4.87-1.11-6-4.42-2.41-9.72-3-13.81-6.05C760.93,416.76,760.54,412.19,761.77,408.64Z" transform="translate(-631.37 -122.44)"/><path class="cls-4" d="M856.26,402.5c5.78-.55,12.24,1.39,15.48,6.49,3,4.38,2.71,9.84,2.55,14.87-.22,3.82-1.5,7.83-4.37,10.5-5,4.84-13,5.39-19.26,3-5.49-2-8.61-7.87-8.8-13.47-.08-4.66-.44-9.64,1.95-13.85C846,405.33,851.24,402.74,856.26,402.5Zm-.06,6.18c-3.81.44-6.1,4.3-6.19,7.87-.1,4.44-.8,9.42,1.77,13.35,2.28,3,6.77,3.39,10.08,2,3.2-1.64,4.46-5.46,4.44-8.87,0-3.68.48-7.71-1.48-11C863.2,409,859.35,408,856.2,408.68Z" transform="translate(-631.37 -122.44)"/><path class="cls-4" d="M944.82,404.47c3.85-2.23,8.52-2.38,12.81-1.65,3.16.74,6.48,1.7,8.8,4.12a25.58,25.58,0,0,0-3.51,4.12c-3.79-1.89-8.15-3.65-12.37-2.18-2.68.59-3,4.81-.67,6,4.47,2.72,10.14,3,14.21,6.49,3.08,2.67,3.2,7.38,2,11-2,4.42-7.19,6-11.68,6.32-5,.21-10.37-.67-14.46-3.75l-1.44-.6a55.8,55.8,0,0,1,3.87-4.84c4,2.7,9,4.1,13.73,2.74,2.31-.3,3.19-3.13,2.4-5.07-.5-1.9-2.58-2.38-4.14-3-3.78-1.5-8-2.36-11.24-4.91C938.58,415.42,939.41,407,944.82,404.47Z" transform="translate(-631.37 -122.44)"/><path class="cls-4" d="M705.36,403.35c2.78-.05,5.57,0,8.36,0,2.65,9.36,5.21,18.76,8,28.07,2.53-9.38,5.34-18.68,7.88-28,2.71-.07,5.4,0,8.1,0-3.74,11.49-7.5,23-11.15,34.48-3.34.05-6.67.05-10,0C712.84,426.36,709,414.89,705.36,403.35Z" transform="translate(-631.37 -122.44)"/><path class="cls-4" d="M741.13,403.34c4.39,0,8.78,0,13.17,0q0,17.27,0,34.51c-2.68,0-5.37,0-8.06,0,0-9.54.07-19.08,0-28.63-1.68,0-3.36,0-5,.06C741.13,407.31,741.12,405.32,741.13,403.34Z" transform="translate(-631.37 -122.44)"/><path class="cls-4" d="M791.51,403.34c2.67,0,5.35,0,8,0,1.72,9.25,3.3,18.53,5.19,27.76q2.85-14,6.16-27.87c3,.07,5.92.05,8.89,0,2,9.25,4.23,18.47,6.14,27.74,1.87-9.2,3.27-18.48,5-27.7,2.66,0,5.31-.08,8,0-2.71,11.48-5.06,23.05-7.79,34.53-3.27-.06-6.53-.06-9.8,0-2.12-9.1-4.08-18.25-6-27.39-2.29,9.07-4.16,18.25-6.25,27.37-3.27,0-6.54,0-9.81,0C796.78,426.32,793.86,414.89,791.51,403.34Z" transform="translate(-631.37 -122.44)"/><path class="cls-4" d="M880.78,403.36q3-.06,5.94-.05c.42,1.78.86,3.56,1.27,5.34,1.35-2.32,3.15-4.64,5.82-5.47,2.43-1,5.07-.52,7.6-.27a74.32,74.32,0,0,1-1.29,7.69A9.31,9.31,0,0,0,889,417.49c-.25,6.79.06,13.59-.14,20.38-2.71,0-5.41,0-8.1-.06Q880.8,420.59,880.78,403.36Z" transform="translate(-631.37 -122.44)"/></svg>